<svg xmlns="http://www.w3.org/2000/svg" xmlns:xlink="http://www.w3.org/1999/xlink" xmlns:inkscape="http://www.inkscape.org/namespaces/inkscape" version="1.1" width="457.505" height="210.37" viewBox="0 0 457.505 210.37">
<path transform="matrix(1,0,0,-1,49.516,84.727)" d="M41.9451 12.78519H-41.9451C-43.04556 12.78519-43.93765 11.89311-43.93765 10.79263V-10.79263C-43.93765-11.89311-43.04556-12.78519-41.9451-12.78519H41.9451C43.04556-12.78519 43.93765-11.89311 43.93765-10.79263V10.79263C43.93765 11.89311 43.04556 12.78519 41.9451 12.78519ZM-43.93765-12.78519" fill="#fffcdf"/>
<path transform="matrix(1,0,0,-1,49.516,84.727)" stroke-width="1.19553" stroke-linecap="butt" stroke-miterlimit="10" stroke-linejoin="miter" fill="none" stroke="#000000" d="M41.9451 12.78519H-41.9451C-43.04556 12.78519-43.93765 11.89311-43.93765 10.79263V-10.79263C-43.93765-11.89311-43.04556-12.78519-41.9451-12.78519H41.9451C43.04556-12.78519 43.93765-11.89311 43.93765-10.79263V10.79263C43.93765 11.89311 43.04556 12.78519 41.9451 12.78519ZM-43.93765-12.78519"/>
<text xml:space="preserve" transform="matrix(1 0 -0 1 -.0000019073487 210.37)" font-size="8.9664" font-family="LMSans9"><tspan y="-128.881" x="28.737 31.310357 34.843118 38.375879 43.137037 50.310155 53.842916 57.16945 61.59885 66.20758">Issuestage</tspan></text>
<text xml:space="preserve" transform="matrix(1 0 -0 1 -.0000019073487 210.37)" font-size="6.9738" font-family="LMSans8"><tspan y="-117.922" x="27.956999 30.83718 34.184606 36.716096 40.00773">(arch</tspan></text>
<path transform="matrix(1,0,0,-1,44.285997,92.24899)" stroke-width=".398" stroke-linecap="butt" stroke-miterlimit="10" stroke-linejoin="miter" fill="none" stroke="#000000" d="M0 0H2.223"/>
<text xml:space="preserve" transform="matrix(1 0 -0 1 -.0000019073487 210.37)" font-size="6.9738" font-family="LMSans8"><tspan y="-117.922" x="46.509 48.280347 52.108964 55.526128 60.052125 64.912868 68.2045">idx,we)</tspan></text>
<path transform="matrix(1,0,0,-1,49.516,84.727)" d="M92.58684-9.92143 99.80606 9.92125H121.0701L128.28932-9.92143Z" fill="#e6e6ff"/>
<path transform="matrix(1,0,0,-1,49.516,84.727)" stroke-width="1.19553" stroke-linecap="butt" stroke-miterlimit="10" stroke-linejoin="miter" fill="none" stroke="#000000" d="M92.58684-9.92143 99.80606 9.92125H121.0701L128.28932-9.92143Z"/>
<text xml:space="preserve" transform="matrix(1 0 -0 1 -.000015258789 210.37)" font-size="8.9664" font-family="LMRoman9"><tspan y="-123.348" x="156.369">+</tspan></text>
<path transform="matrix(1,0,0,-1,49.516,84.727)" d="M153.52347-9.9213 160.74539 9.92139H183.5074L190.72934-9.9213Z" fill="#e6e6ff"/>
<path transform="matrix(1,0,0,-1,49.516,84.727)" stroke-width="1.19553" stroke-linecap="butt" stroke-miterlimit="10" stroke-linejoin="miter" fill="none" stroke="#000000" d="M153.52347-9.9213 160.74539 9.92139H183.5074L190.72934-9.9213Z"/>
<text xml:space="preserve" transform="matrix(1 0 -0 1 0 210.37)" font-size="8.9664" font-family="LMMathItalic9" font-style="italic"><tspan y="-123.402" x="218.057">&#x003c;</tspan></text>
<path transform="matrix(1,0,0,-1,49.516,84.727)" d="M250.84784-19.70871 267.2129 8.63809H234.48278Z" fill="#e6ffe6"/>
<path transform="matrix(1,0,0,-1,49.516,84.727)" stroke-width="1.19553" stroke-linecap="butt" stroke-miterlimit="10" stroke-linejoin="miter" fill="none" stroke="#000000" d="M250.84784-19.70871 267.2129 8.63809H234.48278Z"/>
<text xml:space="preserve" transform="matrix(1 0 -0 1 -.000030517579 210.37)" font-size="6.9738" font-family="LMRoman7"><tspan y="-109.652" x="310.514 316.84623 321.2467">mux</tspan></text>
<path transform="matrix(1,0,0,-1,49.516,84.727)" d="M308.86997-32.59888H402.41456V32.598867H308.86997Z" fill="#f2f2f2"/>
<path transform="matrix(1,0,0,-1,49.516,84.727)" stroke-width="1.19553" stroke-linecap="butt" stroke-miterlimit="10" stroke-linejoin="miter" fill="none" stroke="#000000" d="M308.86997-32.59888H402.41456V32.598867H308.86997Z"/>
<text xml:space="preserve" transform="matrix(1 0 -0 1 0 210.37)" font-size="8.9664" font-family="LMSans9"><tspan y="-133.904" x="382.314 388.20494 392.9661 397.21617 400.74894 402.9457 407.04338 411.47279 416.74504 422.71665">PhysicalRF</tspan><tspan y="-122.94501" x="386.43 391.03874 398.72294 402.8206 407.58177 410.9083 414.0555 416.2523 420.34996">64entries</tspan></text>
<text xml:space="preserve" transform="matrix(1 0 -0 1 0 210.37)" font-size="8.9664" font-family="LMMathSymbols9" font-style="italic"><tspan y="-111.98601" x="388.418">&#x00d7;</tspan></text>
<text xml:space="preserve" transform="matrix(1 0 -0 1 0 210.37)" font-size="8.9664" font-family="LMSans9"><tspan y="-111.98601" x="398.65763 404.81755 409.8387 415.37098">XLEN</tspan></text>
<path transform="matrix(1,0,0,-1,49.516,84.727)" d="M143.78022-67.67702H200.47383V-42.30037H143.78022Z" fill="#ffecd9"/>
<path transform="matrix(1,0,0,-1,49.516,84.727)" stroke-width="1.19553" stroke-linecap="butt" stroke-miterlimit="10" stroke-linejoin="miter" fill="none" stroke="#000000" d="M143.78022-67.67702H200.47383V-42.30037H143.78022Z"/>
<text xml:space="preserve" transform="matrix(1 0 -0 1 0 210.37)" font-size="8.9664" font-family="LMSans9"><tspan y="-73.796" x="200.276 206.16693 211.28675 220.33383 224.94257 229.19264 233.80138 238.41011">CSR0x800</tspan></text>
<text xml:space="preserve" transform="matrix(1 0 -0 1 0 210.37)" font-size="6.9738" font-family="LMMono8"><tspan y="-62.836999" x="198.078 201.7811 205.48419 209.18729 212.89038 216.59348">window</tspan></text>
<path transform="matrix(1,0,0,-1,220.752,147.334)" stroke-width=".398" stroke-linecap="butt" stroke-miterlimit="10" stroke-linejoin="miter" fill="none" stroke="#000000" d="M0 0H2.223"/>
<text xml:space="preserve" transform="matrix(1 0 -0 1 0 210.37)" font-size="6.9738" font-family="LMMono8"><tspan y="-62.837" x="222.975 226.6781 230.3812 234.08429 237.78739 241.49048">config</tspan></text>
<path transform="matrix(1,0,0,-1,49.516,84.727)" d="M221.51204-67.67702H292.76667V-42.30037H221.51204Z" fill="#ffecd9"/>
<path transform="matrix(1,0,0,-1,49.516,84.727)" stroke-width="1.19553" stroke-linecap="butt" stroke-miterlimit="10" stroke-linejoin="miter" fill="none" stroke="#000000" d="M221.51204-67.67702H292.76667V-42.30037H221.51204Z"/>
<text xml:space="preserve" transform="matrix(1 0 -0 1 0 210.37)" font-size="8.9664" font-family="LMSans9"><tspan y="-73.796" x="285.288 291.17893 296.29875 305.34584 309.9456 314.19566 318.80439 323.41313">CSR0x801</tspan></text>
<text xml:space="preserve" transform="matrix(1 0 -0 1 0 210.37)" font-size="6.9738" font-family="LMMono8"><tspan y="-62.836999" x="274.346 278.0491 281.7522 285.4553">prev</tspan></text>
<path transform="matrix(1,0,0,-1,289.61,147.334)" stroke-width=".398" stroke-linecap="butt" stroke-miterlimit="10" stroke-linejoin="miter" fill="none" stroke="#000000" d="M0 0H2.223"/>
<text xml:space="preserve" transform="matrix(1 0 -0 1 0 210.37)" font-size="6.9738" font-family="LMMono8"><tspan y="-62.837" x="291.833 295.5361 299.2392 302.9423 306.6454 310.34849">window</tspan></text>
<path transform="matrix(1,0,0,-1,314.506,147.334)" stroke-width=".398" stroke-linecap="butt" stroke-miterlimit="10" stroke-linejoin="miter" fill="none" stroke="#000000" d="M0 0H2.223"/>
<text xml:space="preserve" transform="matrix(1 0 -0 1 0 210.37)" font-size="6.9738" font-family="LMMono8"><tspan y="-62.837" x="316.729 320.4321 324.1352 327.8383 331.54139 335.24449">config</tspan></text>
<path transform="matrix(1,0,0,-1,49.516,84.727)" d="M233.91481-94.38449H110.33923C109.23877-94.38449 108.34668-95.27657 108.34668-96.37704V-118.07297C108.34668-119.17345 109.23877-120.06552 110.33923-120.06552H233.91481C235.01528-120.06552 235.90737-119.17345 235.90737-118.07297V-96.37704C235.90737-95.27657 235.01528-94.38449 233.91481-94.38449ZM108.34668-120.06552" fill="#ffe6e6"/>
<path transform="matrix(1,0,0,-1,49.516,84.727)" stroke-width="1.19553" stroke-linecap="butt" stroke-miterlimit="10" stroke-linejoin="miter" fill="none" stroke="#000000" d="M233.91481-94.38449H110.33923C109.23877-94.38449 108.34668-95.27657 108.34668-96.37704V-118.07297C108.34668-119.17345 109.23877-120.06552 110.33923-120.06552H233.91481C235.01528-120.06552 235.90737-119.17345 235.90737-118.07297V-96.37704C235.90737-95.27657 235.01528-94.38449 233.91481-94.38449ZM108.34668-120.06552"/>
<text xml:space="preserve" transform="matrix(1 0 -0 1 0 210.37)" font-size="8.9664" font-family="LMSans9"><tspan y="-21.214" x="181.4 186.92331 190.07051 194.49991 202.33654 210.02074 214.26184 220.23346 225.76573 235.13562 239.23326 243.842 248.60315 251.92969 255.07689 259.6856">Trap/xRETcontrol</tspan></text>
<text xml:space="preserve" transform="matrix(1 0 -0 1 0 210.37)" font-size="6.9738" font-family="LMSans8"><tspan y="-10.2560009" x="167.87299 170.71132 174.53993 178.09658 181.92519 184.76352 188.59214 192.29523 197.44188 201.14498 207.4423 210.12024 212.65174 216.20838 220.03699 224.56995 227.09447 230.38611 233.22444 235.90238 239.40323 241.93473 247.69509 251.39818 257.69554 261.1127 265.91069 270.353">snapshotontrap,restoreonxRET</tspan></text>
<path transform="matrix(1,0,0,-1,49.516,84.727)" d="M400.42198 79.14903H310.8625C309.76203 79.14903 308.86997 78.25694 308.86997 77.15648V55.62962C308.86997 54.52916 309.76203 53.63707 310.8625 53.63707H400.42198C401.52247 53.63707 402.41453 54.52916 402.41453 55.62962V77.15648C402.41453 78.25694 401.52247 79.14903 400.42198 79.14903ZM308.86997 53.63707" fill="#ececec"/>
<path transform="matrix(1,0,0,-1,49.516,84.727)" stroke-width="1.19553" stroke-linecap="butt" stroke-miterlimit="10" stroke-linejoin="miter" fill="none" stroke="#000000" d="M400.42198 79.14903H310.8625C309.76203 79.14903 308.86997 78.25694 308.86997 77.15648V55.62962C308.86997 54.52916 309.76203 53.63707 310.8625 53.63707H400.42198C401.52247 53.63707 402.41453 54.52916 402.41453 55.62962V77.15648C402.41453 78.25694 401.52247 79.14903 400.42198 79.14903ZM308.86997 53.63707"/>
<text xml:space="preserve" transform="matrix(1 0 -0 1 0 210.37)" font-size="8.9664" font-family="LMSans9"><tspan y="-189.794" x="377.013 382.90394 387.51268 394.82926 402.14585 404.34263 410.74464 418.41987 427.1352">Commit/WB</tspan></text>
<path transform="matrix(1,0,0,-1,49.516,84.727)" stroke-width="1.19553" stroke-linecap="butt" stroke-miterlimit="10" stroke-linejoin="miter" fill="none" stroke="#000000" d="M44.5354 0H87.78882"/>
<path transform="matrix(1,0,0,-1,137.30481,84.727)" d="M5.30629 0C4.65466 .16344 1.79025 1.08963 0 2.09753V-2.09753C1.79025-1.08963 4.65466-.16344 5.30629 0Z"/>
<path transform="matrix(1,0,0,-1,137.30481,84.727)" stroke-width="1.19553" stroke-linecap="butt" stroke-miterlimit="10" stroke-linejoin="miter" fill="none" stroke="#000000" d="M5.30629 0C4.65466 .16344 1.79025 1.08963 0 2.09753V-2.09753C1.79025-1.08963 4.65466-.16344 5.30629 0Z"/>
<text xml:space="preserve" transform="matrix(1 0 -0 1 0 210.37)" font-size="6.9738" font-family="LMRoman7"><tspan y="-131.554" x="105.306 109.27409 112.38441 115.710918">arch</tspan></text>
<path transform="matrix(1,0,0,-1,120.595,78.61699)" stroke-width=".398" stroke-linecap="butt" stroke-miterlimit="10" stroke-linejoin="miter" fill="none" stroke="#000000" d="M0 0H2.383"/>
<text xml:space="preserve" transform="matrix(1 0 -0 1 0 210.37)" font-size="6.9738" font-family="LMRoman7"><tspan y="-131.554" x="122.978 125.23054 129.63101">idx</tspan></text>
<path transform="matrix(1,0,0,-1,49.516,84.727)" stroke-width="1.19553" stroke-linecap="butt" stroke-miterlimit="10" stroke-linejoin="miter" fill="none" stroke="#000000" d="M125.31676 0H148.72748"/>
<path transform="matrix(1,0,0,-1,198.24347,84.727)" d="M5.30629 0C4.65466 .16344 1.79025 1.08963 0 2.09753V-2.09753C1.79025-1.08963 4.65466-.16344 5.30629 0Z"/>
<path transform="matrix(1,0,0,-1,198.24347,84.727)" stroke-width="1.19553" stroke-linecap="butt" stroke-miterlimit="10" stroke-linejoin="miter" fill="none" stroke="#000000" d="M5.30629 0C4.65466 .16344 1.79025 1.08963 0 2.09753V-2.09753C1.79025-1.08963 4.65466-.16344 5.30629 0Z"/>
<text xml:space="preserve" transform="matrix(1 0 -0 1 0 210.37)" font-size="6.9738" font-family="LMRoman7"><tspan y="-133.906" x="175.608 180.00847 184.19275 188.37703">phys</tspan></text>
<path transform="matrix(1,0,0,-1,192.012,76.265)" stroke-width=".398" stroke-linecap="butt" stroke-miterlimit="10" stroke-linejoin="miter" fill="none" stroke="#000000" d="M0 0H2.383"/>
<text xml:space="preserve" transform="matrix(1 0 -0 1 0 210.37)" font-size="6.9738" font-family="LMRoman7"><tspan y="-133.906" x="194.395 196.64754 201.048">idx</tspan></text>
<path transform="matrix(1,0,0,-1,49.516,84.727)" stroke-width="1.19553" stroke-linecap="butt" stroke-miterlimit="10" stroke-linejoin="miter" fill="none" stroke="#000000" d="M187.75421 0H231.00763"/>
<path transform="matrix(1,0,0,-1,280.52363,84.727)" d="M5.30629 0C4.65466 .16344 1.79025 1.08963 0 2.09753V-2.09753C1.79025-1.08963 4.65466-.16344 5.30629 0Z"/>
<path transform="matrix(1,0,0,-1,280.52363,84.727)" stroke-width="1.19553" stroke-linecap="butt" stroke-miterlimit="10" stroke-linejoin="miter" fill="none" stroke="#000000" d="M5.30629 0C4.65466 .16344 1.79025 1.08963 0 2.09753V-2.09753C1.79025-1.08963 4.65466-.16344 5.30629 0Z"/>
<text xml:space="preserve" transform="matrix(1 0 -0 1 .000015258789 210.37)" font-size="6.9738" font-family="LMRoman7"><tspan y="-133.906" x="242.726 244.97853">in</tspan></text>
<path transform="matrix(1,0,0,-1,249.85802,76.265)" stroke-width=".398" stroke-linecap="butt" stroke-miterlimit="10" stroke-linejoin="miter" fill="none" stroke="#000000" d="M0 0H2.383"/>
<text xml:space="preserve" transform="matrix(1 0 -0 1 .000015258789 210.37)" font-size="6.9738" font-family="LMRoman7"><tspan y="-133.906" x="252.24 256.64048 260.60856 263.71888 266.8292 269.08174 272.19206 274.44459 278.41267">partition</tspan></text>
<path transform="matrix(1,0,0,-1,49.516,84.727)" stroke-width="1.19553" stroke-linecap="butt" stroke-miterlimit="10" stroke-linejoin="miter" fill="none" stroke="#000000" d="M262.9171 0H300.50126"/>
<path transform="matrix(1,0,0,-1,350.01725,84.727)" d="M5.30629 0C4.65466 .16344 1.79025 1.08963 0 2.09753V-2.09753C1.79025-1.08963 4.65466-.16344 5.30629 0Z"/>
<path transform="matrix(1,0,0,-1,350.01725,84.727)" stroke-width="1.19553" stroke-linecap="butt" stroke-miterlimit="10" stroke-linejoin="miter" fill="none" stroke="#000000" d="M5.30629 0C4.65466 .16344 1.79025 1.08963 0 2.09753V-2.09753C1.79025-1.08963 4.65466-.16344 5.30629 0Z"/>
<path transform="matrix(1,0,0,-1,49.516,84.727)" stroke-width="1.19553" stroke-linecap="butt" stroke-miterlimit="10" stroke-linejoin="miter" fill="none" stroke="#000000" d="M172.12703-41.70259V-27.52919"/>
<text xml:space="preserve" transform="matrix(1 0 -0 1 -.000015258789 210.37)" font-size="6.9738" font-family="LMMathSymbols7" font-style="italic"><tspan y="-89.284" x="225.559">{</tspan></text>
<text xml:space="preserve" transform="matrix(1 0 -0 1 -.000015258789 210.37)" font-size="6.9738" font-family="LMRoman7"><tspan y="-89.284" x="229.63867 234.03914 238.00724 241.16637 244.70906 249.6465 252.80564 255.05817 258.60087">base,size</tspan></text>
<text xml:space="preserve" transform="matrix(1 0 -0 1 -.000015258789 210.37)" font-size="6.9738" font-family="LMMathSymbols7" font-style="italic"><tspan y="-89.284" x="262.14356">}</tspan></text>
<path transform="matrix(1,0,0,-1,49.516,84.727)" stroke-width="1.19553" stroke-linecap="butt" stroke-miterlimit="10" stroke-linejoin="miter" fill="none" stroke="#000000" d="M172.12703-27.52919H110.43857V-18.29149"/>
<path transform="matrix(0,-1,-1,-0,159.95456,103.018489)" d="M5.30629 0C4.65466 .16344 1.79025 1.08963 0 2.09753V-2.09753C1.79025-1.08963 4.65466-.16344 5.30629 0Z"/>
<path transform="matrix(0,-1,-1,-0,159.95456,103.018489)" stroke-width="1.19553" stroke-linecap="butt" stroke-miterlimit="10" stroke-linejoin="miter" fill="none" stroke="#000000" d="M5.30629 0C4.65466 .16344 1.79025 1.08963 0 2.09753V-2.09753C1.79025-1.08963 4.65466-.16344 5.30629 0Z"/>
<path transform="matrix(1,0,0,-1,49.516,84.727)" stroke-width="1.19553" stroke-linecap="butt" stroke-miterlimit="10" stroke-linejoin="miter" fill="none" stroke="#000000" d="M172.12703-27.52919V-27.52919-18.29187"/>
<path transform="matrix(0,-1,-1,-0,221.64304,103.01887)" d="M5.30629 0C4.65466 .16344 1.79025 1.08963 0 2.09753V-2.09753C1.79025-1.08963 4.65466-.16344 5.30629 0Z"/>
<path transform="matrix(0,-1,-1,-0,221.64304,103.01887)" stroke-width="1.19553" stroke-linecap="butt" stroke-miterlimit="10" stroke-linejoin="miter" fill="none" stroke="#000000" d="M5.30629 0C4.65466 .16344 1.79025 1.08963 0 2.09753V-2.09753C1.79025-1.08963 4.65466-.16344 5.30629 0Z"/>
<path transform="matrix(1,0,0,-1,49.516,84.727)" stroke-width="1.19553" stroke-linecap="butt" stroke-miterlimit="10" stroke-linejoin="miter" fill="none" stroke="#000000" d="M172.12703-93.78673V-76.04572"/>
<path transform="matrix(0,-1,-1,-0,221.64304,160.77272)" d="M5.30629 0C4.65466 .16344 1.79025 1.08963 0 2.09753V-2.09753C1.79025-1.08963 4.65466-.16344 5.30629 0Z"/>
<path transform="matrix(0,-1,-1,-0,221.64304,160.77272)" stroke-width="1.19553" stroke-linecap="butt" stroke-miterlimit="10" stroke-linejoin="miter" fill="none" stroke="#000000" d="M5.30629 0C4.65466 .16344 1.79025 1.08963 0 2.09753V-2.09753C1.79025-1.08963 4.65466-.16344 5.30629 0Z"/>
<path transform="matrix(1,0,0,-1,49.516,84.727)" stroke-width="1.19553" stroke-linecap="butt" stroke-miterlimit="10" stroke-linejoin="miter" fill="none" stroke="#000000" d="M201.0716-54.98868H213.14333"/>
<path transform="matrix(1,0,0,-1,262.65934,139.71569)" d="M5.30629 0C4.65466 .16344 1.79025 1.08963 0 2.09753V-2.09753C1.79025-1.08963 4.65466-.16344 5.30629 0Z"/>
<path transform="matrix(1,0,0,-1,262.65934,139.71569)" stroke-width="1.19553" stroke-linecap="butt" stroke-miterlimit="10" stroke-linejoin="miter" fill="none" stroke="#000000" d="M5.30629 0C4.65466 .16344 1.79025 1.08963 0 2.09753V-2.09753C1.79025-1.08963 4.65466-.16344 5.30629 0Z"/>
<path transform="matrix(1,0,0,-1,49.516,84.727)" stroke-width="1.19553" stroke-linecap="butt" stroke-miterlimit="10" stroke-linejoin="miter" fill="none" stroke="#000000" d="M257.13938-68.27477V-107.225H244.27606"/>
<path transform="matrix(-1,-0,0,1,293.79206,191.952)" d="M5.30629 0C4.65466 .16344 1.79025 1.08963 0 2.09753V-2.09753C1.79025-1.08963 4.65466-.16344 5.30629 0Z"/>
<path transform="matrix(-1,-0,0,1,293.79206,191.952)" stroke-width="1.19553" stroke-linecap="butt" stroke-miterlimit="10" stroke-linejoin="miter" fill="none" stroke="#000000" d="M5.30629 0C4.65466 .16344 1.79025 1.08963 0 2.09753V-2.09753C1.79025-1.08963 4.65466-.16344 5.30629 0Z"/>
<path transform="matrix(1,0,0,-1,49.516,84.727)" stroke-width="1.19553" stroke-linecap="butt" stroke-miterlimit="10" stroke-linejoin="miter" fill="none" stroke="#000000" d="M355.64225 53.03932V40.96758"/>
<path transform="matrix(0,1,1,0,405.15824,43.75942)" d="M5.30629 0C4.65466 .16344 1.79025 1.08963 0 2.09753V-2.09753C1.79025-1.08963 4.65466-.16344 5.30629 0Z"/>
<path transform="matrix(0,1,1,0,405.15824,43.75942)" stroke-width="1.19553" stroke-linecap="butt" stroke-miterlimit="10" stroke-linejoin="miter" fill="none" stroke="#000000" d="M5.30629 0C4.65466 .16344 1.79025 1.08963 0 2.09753V-2.09753C1.79025-1.08963 4.65466-.16344 5.30629 0Z"/>
<text xml:space="preserve" transform="matrix(1 0 -0 1 0 210.37)" font-size="6.9738" font-family="LMRoman7"><tspan y="-159.462" x="245.029 248.5717 252.1144 255.22472 259.1928 261.87773 264.34645 268.3145 271.42485 274.96754">zero-force</tspan><tspan y="-151.492" x="233.50801 237.4761">on</tspan></text>
<text xml:space="preserve" transform="matrix(1 0 -0 1 0 210.37)" font-size="6.9738" font-family="LMMathSymbols7" font-style="italic"><tspan y="-151.492" x="244.56148">&#x00ac;</tspan></text>
<text xml:space="preserve" transform="matrix(1 0 -0 1 0 210.37)" font-size="6.9738" font-family="LMRoman7"><tspan y="-151.492" x="249.9313 252.18384">in</tspan></text>
<path transform="matrix(1,0,0,-1,257.065,58.679)" stroke-width=".398" stroke-linecap="butt" stroke-miterlimit="10" stroke-linejoin="miter" fill="none" stroke="#000000" d="M0 0H2.383"/>
<text xml:space="preserve" transform="matrix(1 0 -0 1 0 210.37)" font-size="6.9738" font-family="LMRoman7"><tspan y="-151.492" x="259.448 263.84849 267.81657 270.92689 274.0372 276.28974 279.40007 281.6526 285.62068">partition</tspan></text>
</svg>
